<svg width="42" height="32" viewBox="0 0 42 32" fill="none" xmlns="http://www.w3.org/2000/svg">
<g id="&#240;&#159;&#166;&#134; icon &#34;arrow ios back&#34;">
<path id="Vector" d="M24.2025 25.3333C23.941 25.3339 23.6827 25.29 23.4465 25.2046C23.2103 25.1192 23.0022 24.9946 22.8375 24.8399L14.385 16.8399C14.1276 16.6013 13.9869 16.3021 13.9869 15.9933C13.9869 15.6844 14.1276 15.3852 14.385 15.1466L23.135 7.14659C23.432 6.8743 23.8589 6.70307 24.3216 6.67056C24.7844 6.63805 25.2451 6.74694 25.6025 6.97325C25.9599 7.19957 26.1846 7.52479 26.2273 7.87735C26.2699 8.22992 26.127 8.58096 25.83 8.85325L18.0075 15.9999L25.5675 23.1466C25.7815 23.3423 25.9174 23.5806 25.9592 23.8334C26.001 24.0861 25.9469 24.3426 25.8033 24.5727C25.6597 24.8027 25.4326 24.9966 25.1489 25.1314C24.8652 25.2662 24.5368 25.3362 24.2025 25.3333Z" fill="black"/>
</g>
</svg>
