<svg width="30" height="28" viewBox="0 0 30 28" fill="none" xmlns="http://www.w3.org/2000/svg">
<path d="M8.69557 0.234375C4.25374 0.234375 0.640015 3.62601 0.640015 7.79485V19.8916C0.640015 24.0605 4.25374 27.4521 8.69557 27.4521H21.5845C26.0263 27.4521 29.64 24.0605 29.64 19.8916V7.79485C29.64 3.62601 26.0263 0.234375 21.5845 0.234375H8.69557ZM8.69557 3.25857H21.5845C24.2492 3.25857 26.4178 5.29385 26.4178 7.79485V19.8916C26.4178 22.3926 24.2492 24.4279 21.5845 24.4279H8.69557C6.03079 24.4279 3.86224 22.3926 3.86224 19.8916V7.79485C3.86224 5.29385 6.03079 3.25857 8.69557 3.25857ZM23.1956 4.77066C22.7683 4.77066 22.3585 4.92997 22.0563 5.21354C21.7542 5.49712 21.5845 5.88172 21.5845 6.28276C21.5845 6.68379 21.7542 7.0684 22.0563 7.35197C22.3585 7.63554 22.7683 7.79485 23.1956 7.79485C23.6229 7.79485 24.0327 7.63554 24.3348 7.35197C24.6369 7.0684 24.8067 6.68379 24.8067 6.28276C24.8067 5.88172 24.6369 5.49712 24.3348 5.21354C24.0327 4.92997 23.6229 4.77066 23.1956 4.77066ZM15.14 6.28276C10.6982 6.28276 7.08446 9.67439 7.08446 13.8432C7.08446 18.0121 10.6982 21.4037 15.14 21.4037C19.5818 21.4037 23.1956 18.0121 23.1956 13.8432C23.1956 9.67439 19.5818 6.28276 15.14 6.28276ZM15.14 9.30695C17.8048 9.30695 19.9733 11.3422 19.9733 13.8432C19.9733 16.3442 17.8048 18.3795 15.14 18.3795C12.4752 18.3795 10.3067 16.3442 10.3067 13.8432C10.3067 11.3422 12.4752 9.30695 15.14 9.30695Z" fill="url(#paint0_linear_71_5)"/>
<defs>
<linearGradient id="paint0_linear_71_5" x1="15.14" y1="0.234375" x2="15.14" y2="27.4521" gradientUnits="userSpaceOnUse">
<stop stop-color="#00CAFF"/>
<stop offset="1" stop-color="#3363FF"/>
</linearGradient>
</defs>
</svg>
