<svg width="32" height="28" viewBox="0 0 32 28" fill="none" xmlns="http://www.w3.org/2000/svg">
<path d="M4.08 0.33963C1.7204 0.33963 0.00664063 1.66675 0.00664063 3.49203C0.00664063 5.32369 1.7612 6.70925 4.08 6.70925C6.4396 6.70925 8.15336 5.3565 8.15336 3.45464C8.04456 1.62298 6.3648 0.33963 4.08 0.33963ZM0.68 7.9919C0.306 7.9919 0 8.27909 0 8.63011V27.1382C0 27.4892 0.306 27.7764 0.68 27.7764H7.48C7.854 27.7764 8.16 27.4892 8.16 27.1382V8.63011C8.16 8.27909 7.854 7.9919 7.48 7.9919H0.68ZM10.88 7.9919C10.506 7.9919 10.2 8.27909 10.2 8.63011V27.1382C10.2 27.4892 10.506 27.7764 10.88 27.7764H17C17.3754 27.7764 17.68 27.4904 17.68 27.1382V17.565V17.4055V17.2459C17.68 15.7334 18.918 14.5013 20.4956 14.3865C20.5772 14.3737 20.6584 14.374 20.74 14.374C20.8216 14.374 20.9028 14.3737 20.9844 14.3865C22.562 14.5013 23.8 15.7334 23.8 17.2459V27.1382C23.8 27.4904 24.1046 27.7764 24.48 27.7764H30.6C30.974 27.7764 31.28 27.4892 31.28 27.1382V16.2886C31.28 12.1594 28.9198 7.9919 23.6566 7.9919C21.263 7.9919 19.4548 8.86001 18.36 9.58119V8.63011C18.36 8.27909 18.054 7.9919 17.68 7.9919H10.88Z" fill="url(#paint0_linear_27_6)"/>
<defs>
<linearGradient id="paint0_linear_27_6" x1="15.64" y1="0.33963" x2="15.64" y2="27.7764" gradientUnits="userSpaceOnUse">
<stop stop-color="#00CAFF"/>
<stop offset="1" stop-color="#3363FF"/>
</linearGradient>
</defs>
</svg>
