<svg width="39" height="33" viewBox="0 0 39 33" fill="none" xmlns="http://www.w3.org/2000/svg">
<g id="linkedin">
<g id="Group">
<path id="Vector" d="M29.7732 9.36999C28.6511 9.36543 27.5393 9.62315 26.5013 10.1284C25.4633 10.6337 24.5195 11.3765 23.724 12.3145C22.9285 13.2525 22.2969 14.3672 21.8652 15.5948C21.4336 16.8224 21.2104 18.1388 21.2085 19.4688V29.6716C21.2085 30.0858 21.3473 30.483 21.5944 30.7759C21.8415 31.0688 22.1767 31.2333 22.5261 31.2333H25.6007C25.9501 31.2333 26.2853 31.0688 26.5324 30.7759C26.7795 30.483 26.9183 30.0858 26.9183 29.6716V19.4688C26.918 18.9958 27.0019 18.528 27.1643 18.0959C27.3268 17.6639 27.5643 17.2773 27.8613 16.9613C28.1583 16.6453 28.5081 16.4071 28.888 16.2621C29.2679 16.1171 29.6693 16.0687 30.0661 16.1199C30.7776 16.2261 31.4315 16.6381 31.9038 17.2778C32.376 17.9174 32.6338 18.7403 32.6282 19.5902V29.6716C32.6282 30.0858 32.767 30.483 33.0141 30.7759C33.2612 31.0688 33.5964 31.2333 33.9458 31.2333H37.0203C37.3698 31.2333 37.705 31.0688 37.9521 30.7759C38.1992 30.483 38.338 30.0858 38.338 29.6716V19.4688C38.3361 18.1388 38.1129 16.8224 37.6813 15.5948C37.2496 14.3672 36.618 13.2525 35.8225 12.3145C35.027 11.3765 34.0832 10.6337 33.0452 10.1284C32.0072 9.62315 30.8954 9.36543 29.7732 9.36999Z" fill="url(#paint0_linear_1_24)"/>
<path id="Vector_2" d="M17.2555 10.9317H13.3025C12.5748 10.9317 11.9849 11.6309 11.9849 12.4933V29.6716C11.9849 30.5341 12.5748 31.2333 13.3025 31.2333H17.2555C17.9832 31.2333 18.5731 30.5341 18.5731 29.6716V12.4933C18.5731 11.6309 17.9832 10.9317 17.2555 10.9317Z" fill="url(#paint1_linear_1_24)"/>
<path id="Vector_3" d="M15.279 7.80832C17.0983 7.80832 18.5731 6.06037 18.5731 3.90416C18.5731 1.74795 17.0983 0 15.279 0C13.4597 0 11.9849 1.74795 11.9849 3.90416C11.9849 6.06037 13.4597 7.80832 15.279 7.80832Z" fill="url(#paint2_linear_1_24)"/>
</g>
</g>
<defs>
<linearGradient id="paint0_linear_1_24" x1="29.7732" y1="9.36993" x2="29.7732" y2="31.2333" gradientUnits="userSpaceOnUse">
<stop stop-color="#00CAFF"/>
<stop offset="1" stop-color="#3363FF"/>
</linearGradient>
<linearGradient id="paint1_linear_1_24" x1="15.279" y1="10.9317" x2="15.279" y2="31.2333" gradientUnits="userSpaceOnUse">
<stop stop-color="#00CAFF"/>
<stop offset="1" stop-color="#3363FF"/>
</linearGradient>
<linearGradient id="paint2_linear_1_24" x1="15.279" y1="0" x2="15.279" y2="7.80832" gradientUnits="userSpaceOnUse">
<stop stop-color="#00CAFF"/>
<stop offset="1" stop-color="#3363FF"/>
</linearGradient>
</defs>
</svg>
