<svg width="34" height="34" viewBox="0 0 34 34" fill="none" xmlns="http://www.w3.org/2000/svg">
<g id="icons8-linkedin 1">
<path id="Vector" d="M5.43999 2.04665C3.08039 2.04665 1.36663 3.46067 1.36663 5.40547C1.36663 7.35707 3.12119 8.83336 5.43999 8.83336C7.79959 8.83336 9.51334 7.39203 9.51334 5.36563C9.40454 3.41403 7.72479 2.04665 5.43999 2.04665ZM2.03999 10.2C1.66599 10.2 1.35999 10.506 1.35999 10.88V30.6C1.35999 30.974 1.66599 31.28 2.03999 31.28H8.83999C9.21399 31.28 9.51999 30.974 9.51999 30.6V10.88C9.51999 10.506 9.21399 10.2 8.83999 10.2H2.03999ZM12.24 10.2C11.866 10.2 11.56 10.506 11.56 10.88V30.6C11.56 30.974 11.866 31.28 12.24 31.28H18.36C18.7353 31.28 19.04 30.9754 19.04 30.6V20.4V20.23V20.06C19.04 18.4484 20.278 17.1357 21.8556 17.0133C21.9372 16.9997 22.0184 17 22.1 17C22.1816 17 22.2628 16.9997 22.3444 17.0133C23.922 17.1357 25.16 18.4484 25.16 20.06V30.6C25.16 30.9754 25.4646 31.28 25.84 31.28H31.96C32.334 31.28 32.64 30.974 32.64 30.6V19.04C32.64 14.6404 30.2797 10.2 25.0165 10.2C22.6229 10.2 20.8148 11.125 19.72 11.8934V10.88C19.72 10.506 19.414 10.2 19.04 10.2H12.24Z" fill="url(#paint0_linear_27_5)"/>
</g>
<defs>
<linearGradient id="paint0_linear_27_5" x1="17" y1="2.04665" x2="17" y2="31.28" gradientUnits="userSpaceOnUse">
<stop stop-color="#00CAFF"/>
<stop offset="1" stop-color="#3363FF"/>
</linearGradient>
</defs>
</svg>
