<svg width="794" height="775" viewBox="0 0 794 775" fill="none" xmlns="http://www.w3.org/2000/svg">
<path d="M380.333 142.104L370.772 217.52L343.311 434.89L333.527 512.099L327.302 561.4L322.41 600.124L314.738 660.854C301.786 657.264 288.111 654.714 273.991 653.392C258.536 651.88 242.527 651.739 226.239 653.155C212.175 654.288 197.944 656.603 183.714 660.051C180.156 660.9 176.598 661.844 173.096 662.836C155.474 667.842 139.075 674.359 124.122 682.103C85.0415 702.315 55.6348 730.838 39.7922 762.383C34.9002 759.503 30.1748 756.386 25.7281 753.034L37.1241 662.883L51.5215 549.123C70.3668 536.844 92.2682 526.834 116.672 519.891C126.233 517.152 135.851 515.027 145.468 513.422L134.906 597.148C140.354 595.166 145.968 593.371 151.694 591.766C165.591 587.799 179.544 585.012 193.385 583.312C207.562 581.471 221.626 580.81 235.356 581.235L243.583 516.16L246.474 493.163L254.646 428.703L278.66 238.487C262.261 245.382 247.252 253.646 233.911 262.996L246.196 165.668C258.036 160.238 270.711 155.563 284.052 151.786C285.997 151.219 287.888 150.699 289.833 150.227C306.121 145.93 322.52 143.238 338.642 141.963C352.762 140.83 366.659 140.876 380.223 141.915C380.277 141.963 380.277 142.058 380.333 142.104Z" fill="url(#paint0_linear_78_3)"/>
<path d="M626.262 305.97L605.248 309.795L538.542 322.026L518.807 325.662C517.084 325.992 515.416 326.37 513.748 326.795V326.559L527.812 215.584C556.831 217.236 587.46 214.026 617.812 205.383C618.035 205.336 618.256 205.242 618.479 205.195C625.816 203.07 632.988 200.708 639.882 198.064L626.262 305.97ZM735.07 44.7335C718.922 78.2068 691.67 107.324 655.64 126.607C653.28 127.87 650.88 129.102 648.442 130.299C641.548 133.699 634.322 136.863 626.762 139.648C620.147 142.199 613.31 144.466 606.25 146.448C582.402 153.25 558.443 156.507 535.262 156.555C515.527 156.602 496.404 154.335 478.56 149.991L447.042 147.11L441.092 194.239L418.412 373.594L396.343 547.99L383.558 649.047L472 657.075L480.116 592.71L504.243 401.975L595.743 385.258L569.004 596.535C576.008 595.638 583.012 594.41 590.018 592.852C595.41 591.671 600.858 590.348 606.25 588.79C626.874 582.935 645.718 574.859 662.451 565.131C670.4 560.503 677.848 555.546 684.798 550.162L708.256 364.715V364.668L717.818 289.206L738.386 126.379L753.618 6.28955L735.07 44.7335Z" fill="url(#paint1_linear_78_3)"/>
<defs>
<linearGradient id="paint0_linear_78_3" x1="24.1555" y1="166.089" x2="463.021" y2="353.726" gradientUnits="userSpaceOnUse">
<stop stop-color="#00CAFF"/>
<stop offset="1" stop-color="#3363FF"/>
</linearGradient>
<linearGradient id="paint1_linear_78_3" x1="381.916" y1="32.4408" x2="840.442" y2="227.745" gradientUnits="userSpaceOnUse">
<stop stop-color="#00CAFF"/>
<stop offset="1" stop-color="#3363FF"/>
</linearGradient>
</defs>
</svg>
