<svg width="25" height="29" viewBox="0 0 25 29" fill="none" xmlns="http://www.w3.org/2000/svg">
<path id="tiktok" d="M21.4741 6.04062C21.2831 5.94209 21.0971 5.83408 20.9169 5.717C20.3929 5.37128 19.9125 4.96392 19.486 4.50369C18.4189 3.2851 18.0204 2.04885 17.8736 1.18329H17.8794C17.7568 0.464844 17.8075 0 17.8152 0H12.9547V18.7573C12.9547 19.0092 12.9547 19.2581 12.9441 19.504C12.9441 19.5346 12.9412 19.5629 12.9394 19.5958C12.9394 19.6094 12.9394 19.6235 12.9365 19.6376C12.9365 19.6411 12.9365 19.6447 12.9365 19.6482C12.8852 20.3212 12.6691 20.9713 12.307 21.5414C11.9449 22.1115 11.448 22.584 10.86 22.9174C10.2472 23.2654 9.55403 23.4479 8.84896 23.447C6.58441 23.447 4.74907 21.6041 4.74907 19.3281C4.74907 17.0521 6.58441 15.2092 8.84896 15.2092C9.27763 15.2088 9.70366 15.2762 10.1112 15.4087L10.1171 10.4696C8.87984 10.3101 7.62284 10.4082 6.42545 10.7578C5.22806 11.1074 4.11625 11.7009 3.16018 12.5008C2.32243 13.2272 1.61814 14.094 1.07898 15.0621C0.873813 15.4152 0.0997037 16.8338 0.00596168 19.1363C-0.0529956 20.4431 0.340249 21.7971 0.527733 22.3567V22.3684C0.645648 22.6979 1.10257 23.8224 1.8472 24.7703C2.44764 25.5307 3.15704 26.1986 3.95256 26.7527V26.7409L3.96435 26.7527C6.31734 28.3484 8.9262 28.2437 8.9262 28.2437C9.37781 28.2255 10.8907 28.2437 12.6087 27.4311C14.5142 26.5302 15.599 25.1881 15.599 25.1881C16.292 24.3861 16.8431 23.4722 17.2286 22.4855C17.6684 21.3316 17.8152 19.9477 17.8152 19.3946V9.4434C17.8741 9.4787 18.6595 9.99709 18.6595 9.99709C18.6595 9.99709 19.7908 10.7208 21.556 11.1922C22.8224 11.5275 24.5286 11.5982 24.5286 11.5982V6.78261C23.9308 6.84733 22.7169 6.65904 21.4741 6.04062Z" fill="url(#paint0_linear_1_26)"/>
<defs>
<linearGradient id="paint0_linear_1_26" x1="12.2643" y1="0" x2="12.2643" y2="28.2451" gradientUnits="userSpaceOnUse">
<stop stop-color="#00CBFF"/>
<stop offset="1" stop-color="#3463FF"/>
</linearGradient>
</defs>
</svg>
