<svg width="26" height="29" viewBox="0 0 26 29" fill="none" xmlns="http://www.w3.org/2000/svg">
<path d="M22.1141 6.04062C21.9231 5.94209 21.7371 5.83408 21.5569 5.717C21.033 5.37128 20.5525 4.96392 20.126 4.50369C19.0589 3.2851 18.6604 2.04885 18.5136 1.18329H18.5195C18.3968 0.464844 18.4475 0 18.4552 0H13.5948V18.7573C13.5948 19.0092 13.5948 19.2581 13.5841 19.504C13.5841 19.5346 13.5812 19.5629 13.5794 19.5958C13.5794 19.6094 13.5794 19.6235 13.5765 19.6376C13.5765 19.6411 13.5765 19.6447 13.5765 19.6482C13.5253 20.3212 13.3091 20.9713 12.947 21.5414C12.5849 22.1115 12.088 22.584 11.5 22.9174C10.8872 23.2654 10.194 23.4479 9.48898 23.447C7.22443 23.447 5.38909 21.6041 5.38909 19.3281C5.38909 17.0521 7.22443 15.2092 9.48898 15.2092C9.91765 15.2088 10.3437 15.2762 10.7513 15.4087L10.7571 10.4696C9.51985 10.3101 8.26286 10.4082 7.06546 10.7578C5.86807 11.1074 4.75627 11.7009 3.80019 12.5008C2.96245 13.2272 2.25815 14.094 1.719 15.0621C1.51383 15.4152 0.739718 16.8338 0.645976 19.1363C0.587019 20.4431 0.980264 21.7971 1.16775 22.3567V22.3684C1.28566 22.6979 1.74258 23.8224 2.48721 24.7703C3.08765 25.5307 3.79706 26.1986 4.59258 26.7527V26.7409L4.60437 26.7527C6.95735 28.3484 9.56621 28.2437 9.56621 28.2437C10.0178 28.2255 11.5307 28.2437 13.2487 27.4311C15.1542 26.5302 16.239 25.1881 16.239 25.1881C16.932 24.3861 17.4831 23.4722 17.8686 22.4855C18.3084 21.3316 18.4552 19.9477 18.4552 19.3946V9.4434C18.5142 9.4787 19.2995 9.99709 19.2995 9.99709C19.2995 9.99709 20.4309 10.7208 22.196 11.1922C23.4624 11.5275 25.1687 11.5982 25.1687 11.5982V6.78261C24.5708 6.84733 23.3569 6.65904 22.1141 6.04062Z" fill="url(#paint0_linear_1_26)"/>
<defs>
<linearGradient id="paint0_linear_1_26" x1="12.9043" y1="0" x2="12.9043" y2="28.2451" gradientUnits="userSpaceOnUse">
<stop stop-color="#00CBFF"/>
<stop offset="1" stop-color="#3463FF"/>
</linearGradient>
</defs>
</svg>
